<svg xmlns="http://www.w3.org/2000/svg" width="280" height="200">
  <path fill="none" d="M-1-1h282v202H-1z"/>
  <path fill="#FFF" d="M70.144 40.058h-9.396c-8.352 0-9.396 7.134-9.396 12.702v26.448c0 17.05-12.005 19.835-17.226 20.532v.52c5.22.523 17.226 4.525 17.226 19.14v27.84c0 5.742 1.044 12.702 9.396 12.702h9.396v19.487H48.047c-7.83 0-21.4-7.66-21.4-23.49v-33.93c0-10.618-10.44-14.44-16.01-14.44V92.43c5.57 0 16.01-4.002 16.01-15.66V44.06c0-15.834 13.57-23.49 21.4-23.49h22.097v19.486zm8.288 2.036h46.323l15.096 62.158h.3l15.096-62.158h46.325v105.668h-30.783V79.98h-.297l-18.354 67.782h-24.27L109.51 79.98h-.296v67.782H78.43V42.094h.002zm131.422 117.848h9.396c8.352 0 9.396-6.96 9.396-12.702V119.4c0-14.614 12.004-18.616 17.225-19.14v-.52c-5.22-.696-17.22-3.48-17.22-20.532V52.76c0-5.568-1.044-12.702-9.395-12.702h-9.395V20.57h22.097c7.83 0 21.402 7.657 21.402 23.49v32.71c0 11.66 10.44 15.66 16.006 15.66v15.138c-5.568 0-16.008 3.828-16.008 14.442v33.93c0 15.833-13.573 23.488-21.403 23.488H209.86v-19.486z"/>
</svg>