<svg xmlns="http://www.w3.org/2000/svg" width="595.28" height="841.89" viewBox="0 0 595.28 841.89">
  <path d="M94.77 135.48h-9.395c-8.352 0-9.396 7.133-9.396 12.7v26.45c0 17.05-12.006 19.834-17.227 20.53v.522c5.22.522 17.226 4.524 17.226 19.14v27.84c0 5.74 1.043 12.7 9.395 12.7h9.396v19.488H72.675c-7.83 0-21.4-7.655-21.4-23.49v-33.928c0-10.614-10.44-14.442-16.01-14.442v-15.137c5.57 0 16.01-4.002 16.01-15.66v-32.71c0-15.834 13.57-23.49 21.4-23.49H94.77v19.486zM103.06 137.515h46.323l15.096 62.158h.295l15.095-62.158h46.323v105.668H195.41V175.4h-.296l-18.352 67.783H152.49L134.138 175.4h-.296v67.783H103.06V137.515zM234.482 255.363h9.396c8.353 0 9.396-6.96 9.396-12.702v-27.838c0-14.615 12.005-18.617 17.226-19.14v-.52c-5.22-.697-17.226-3.48-17.226-20.533v-26.45c0-5.567-1.044-12.7-9.396-12.7h-9.396V115.99h22.098c7.83 0 21.4 7.656 21.4 23.49v32.71c0 11.658 10.44 15.66 16.01 15.66v15.137c-5.57 0-16.01 3.827-16.01 14.44v33.93c0 15.834-13.57 23.49-21.4 23.49h-22.098v-19.487z"/>
</svg>
